<svg preserveAspectRatio="none" width="100%" height="100%" overflow="visible" style="display: block;" viewBox="0 0 176 17" fill="none" xmlns="http://www.w3.org/2000/svg">
<g id="FE &#208;&#159;&#208;&#155;&#208;&#144;&#208;&#162;&#208;&#164;&#208;&#158;&#208;&#160;&#208;&#156;&#208;&#144;">
<path id="Vector" d="M175.954 16.272H172.066L171.082 13.56H164.218L163.21 16.272H159.322L165.514 0.264008H169.786L175.954 16.272ZM170.146 10.56L167.65 3.67201L165.154 10.56H170.146Z" fill="var(--fill-0, #27272A)"/>
<path id="Vector_2" d="M158.807 16.272H155.375V5.06401L150.863 16.272H149.375L144.863 5.06401V16.272H141.455V0.264008H146.231L150.119 9.93601L154.007 0.264008H158.807V16.272Z" fill="var(--fill-0, #27272A)"/>
<path id="Vector_3" d="M130.846 16.272H127.438V0.264008H134.926C138.406 0.264008 140.302 2.61601 140.302 5.42401C140.302 8.20801 138.382 10.584 134.926 10.584H130.846V16.272ZM134.47 7.58401C135.814 7.58401 136.822 6.74401 136.822 5.42401C136.822 4.08001 135.814 3.26401 134.47 3.26401H130.846V7.58401H134.47Z" fill="var(--fill-0, #27272A)"/>
<path id="Vector_4" d="M117.631 16.56C112.807 16.56 109.279 13.104 109.279 8.28C109.279 3.456 112.807 0 117.631 0C122.479 0 126.007 3.456 126.007 8.28C126.007 13.104 122.479 16.56 117.631 16.56ZM117.631 13.536C120.583 13.536 122.503 11.256 122.503 8.28C122.503 5.28 120.583 3.024 117.631 3.024C114.679 3.024 112.783 5.28 112.783 8.28C112.783 11.256 114.679 13.536 117.631 13.536Z" fill="var(--fill-0, #27272A)"/>
<path id="Vector_5" d="M100.843 16.272H97.4353V14.664C92.5873 14.256 89.7073 11.976 89.7073 8.28001C89.7073 4.60801 92.5873 2.32801 97.4353 1.89601V0.264008H100.843V1.89601C105.691 2.32801 108.571 4.58401 108.571 8.28001C108.571 11.976 105.691 14.256 100.843 14.664V16.272ZM105.091 8.28001C105.091 6.45601 103.603 5.28001 100.843 4.94401V11.616C103.603 11.304 105.091 10.104 105.091 8.28001ZM93.2113 8.28001C93.2113 10.104 94.6753 11.28 97.4353 11.616V4.94401C94.6753 5.28001 93.2113 6.48001 93.2113 8.28001Z" fill="var(--fill-0, #27272A)"/>
<path id="Vector_6" d="M85.1805 16.272H81.7485V3.26401H77.0685V0.264008H89.8365V3.26401H85.1805V16.272Z" fill="var(--fill-0, #27272A)"/>
<path id="Vector_7" d="M79.0811 16.272H75.1931L74.2091 13.56H67.3451L66.3371 16.272H62.4491L68.6411 0.264008H72.9131L79.0811 16.272ZM73.2731 10.56L70.7771 3.67201L68.2811 10.56H73.2731Z" fill="var(--fill-0, #27272A)"/>
<path id="Vector_8" d="M46.5984 16.56V13.536C48.2064 13.536 49.1424 12.672 49.6464 8.44801L50.5824 0.264008H61.9584V16.272H58.5264V3.26401H53.6544L53.0304 8.68801C52.2624 15.336 49.8624 16.56 46.5984 16.56Z" fill="var(--fill-0, #27272A)"/>
<path id="Vector_9" d="M45.3637 16.272H41.9317V3.26401H34.3717V16.272H30.9637V0.264008H45.3637V16.272Z" fill="var(--fill-0, #27272A)"/>
<path id="Vector_10" d="M24.079 16.272H12.751V0.264008H24.079V3.26401H16.159V6.64801H23.911V9.64801H16.159V13.272H24.079V16.272Z" fill="var(--fill-0, #E4570C)"/>
<path id="Vector_11" d="M3.408 16.272H0V0.264008H11.328V3.26401H3.408V6.64801H11.16V9.64801H3.408V16.272Z" fill="var(--fill-0, #E4570C)"/>
</g>
</svg>
