<svg preserveAspectRatio="xMidYMid meet" width="24" height="24" overflow="visible" style="display: block;" viewBox="0 0 22 20" fill="none" xmlns="http://www.w3.org/2000/svg">
<path id="Icon" d="M8.23339 1.47482C9.5987 -0.557108 12.6378 -0.489447 13.8916 1.67794L21.5361 14.8957L21.6494 15.1076C22.7302 17.3081 21.18 20 18.6445 20.0002H3.35351C0.736082 20 -0.831049 17.1311 0.461908 14.8957L8.10644 1.67794L8.23339 1.47482ZM12.1602 2.6799C11.6688 1.8304 10.5179 1.77715 9.94433 2.52072L9.83788 2.6799L2.19238 15.8977C1.6419 16.8501 2.33449 18 3.35351 18.0002H18.6445C19.5998 18 20.2683 16.9894 19.8945 16.0783L19.8057 15.8977L12.1602 2.6799ZM11.0078 13.0002L11.1103 13.0051C11.6146 13.0563 12.0078 13.4825 12.0078 14.0002C12.0078 14.5179 11.6146 14.9441 11.1103 14.9953L11.0078 15.0002H10.999C10.4467 15.0002 9.99902 14.5525 9.99902 14.0002C9.99902 13.4479 10.4467 13.0002 10.999 13.0002H11.0078ZM9.99902 11.0002V7.00021C9.99902 6.44792 10.4467 6.00021 10.999 6.00021C11.5513 6.00021 11.999 6.44792 11.999 7.00021V11.0002C11.999 11.5525 11.5513 12.0002 10.999 12.0002C10.4467 12.0002 9.99902 11.5525 9.99902 11.0002Z" fill="var(--fill-0, #56524E)"/>
</svg>
