<svg preserveAspectRatio="xMidYMid meet" width="24" height="24" overflow="visible" style="display: block;" viewBox="0 0 14 14" fill="none" xmlns="http://www.w3.org/2000/svg">
<path id="Icon" fill-rule="evenodd" clip-rule="evenodd" d="M13.7091 0.292894C14.0996 0.683418 14.0996 1.31658 13.7091 1.70711L3.41425 12.0019L7.99999 12.0018C8.55227 12.0018 8.99999 12.4495 9 13.0018C9.00001 13.5541 8.5523 14.0018 8.00001 14.0018L1.00001 14.0019C0.734795 14.0019 0.480438 13.8966 0.292898 13.709C0.105359 13.5215 0 13.2671 0 13.0019V6.00183C0 5.44954 0.447715 5.00183 1 5.00183C1.55228 5.00183 2 5.44954 2 6.00183V10.5877L12.2948 0.292893C12.6854 -0.0976312 13.3185 -0.0976309 13.7091 0.292894Z" fill="var(--fill-0, #56524E)"/>
</svg>
