<svg preserveAspectRatio="xMidYMid meet" width="24" height="24" overflow="visible" style="display: block;" viewBox="0 0 14 14" fill="none" xmlns="http://www.w3.org/2000/svg">
<path id="Icon" fill-rule="evenodd" clip-rule="evenodd" d="M4.99988 0.999966C4.9999 0.447681 5.44763 -1.89537e-05 5.99991 6.01828e-10L13 0.000240803C13.5523 0.000259817 14 0.44798 14 1.00026L13.9999 8.00002C13.9999 8.5523 13.5521 9.00001 12.9999 9C12.4476 8.99999 11.9999 8.55227 11.9999 7.99998L12 3.41446L1.7071 13.7071C1.31657 14.0976 0.683406 14.0976 0.292886 13.7071C-0.0976342 13.3166 -0.0976279 12.6834 0.2929 12.2929L10.5858 2.00016L5.99984 2C5.44756 1.99998 4.99986 1.55225 4.99988 0.999966Z" fill="var(--fill-0, #56524E)"/>
</svg>
