<svg width="24" height="24" viewBox="0 0 20 22" fill="none" xmlns="http://www.w3.org/2000/svg" preserveAspectRatio="xMidYMid meet">
<path id="Icon" fill-rule="evenodd" clip-rule="evenodd" d="M9.51436 0.125843C9.81638 -0.0419476 10.1836 -0.0419476 10.4856 0.125843L19.4856 5.12584C19.8031 5.30221 20 5.63683 20 6V8.99502C20 9.54731 19.5523 9.99502 19 9.99502H18V17H19C19.5522 17 20 17.4477 20 18V20.9999C20 21.5522 19.5522 21.9999 19 21.9999H1.0003C0.448054 21.9999 0.000354593 21.5523 0.000299459 21L4.98503e-09 18.0001C-2.64595e-05 17.7349 0.105319 17.4805 0.292858 17.2929C0.480397 17.1054 0.734766 17 1 17H2V9.99502H1C0.447715 9.99502 4.98503e-09 9.54731 4.98503e-09 8.99502V6C4.98503e-09 5.63683 0.196892 5.30221 0.514357 5.12584L9.51436 0.125843ZM4 9.99502V17H6V9.99502H4ZM8 9.99502V17H12V9.99502H8ZM14 9.99502V17H16V9.99502H14ZM18 7.99502H2V6.5884L10 2.14396L18 6.5884V7.99502ZM18 19H2.0001L2.0002 19.9999H18V19ZM8.99591 6C8.99591 5.44772 9.44363 5 9.99591 5H10.0049C10.5572 5 11.0049 5.44772 11.0049 6C11.0049 6.55228 10.5572 7 10.0049 7H9.99591C9.44363 7 8.99591 6.55228 8.99591 6Z" fill="var(--fill-0, #56524E)"/>
</svg>
