<svg preserveAspectRatio="xMidYMid meet" width="24" height="24" overflow="visible" style="display: block;" viewBox="0 0 21 21" fill="none" xmlns="http://www.w3.org/2000/svg">
<g id="Icon">
<path d="M1 10.5C1 6.02166 1 3.78249 2.39124 2.39124C3.78249 1 6.02166 1 10.5 1C14.9783 1 17.2175 1 18.6088 2.39124C20 3.78249 20 6.02166 20 10.5C20 14.9783 20 17.2175 18.6088 18.6088C17.2175 20 14.9783 20 10.5 20C6.02166 20 3.78249 20 2.39124 18.6088C1 17.2175 1 14.9783 1 10.5Z" fill="var(--fill-0, #56524E)"/>
<path fill-rule="evenodd" clip-rule="evenodd" d="M10.4255 5.3446e-07H10.5745C12.7504 -2.3069e-05 14.4852 -4.19021e-05 15.8453 0.182824C17.2497 0.371638 18.4035 0.771747 19.3159 1.68414C20.2283 2.59653 20.6284 3.75033 20.8172 5.15471C21 6.51485 21 8.24959 21 10.4256V10.5744C21 12.7504 21 14.4851 20.8172 15.8453C20.6284 17.2497 20.2283 18.4035 19.3159 19.3159C18.4035 20.2283 17.2497 20.6284 15.8453 20.8172C14.4851 21 12.7504 21 10.5744 21H10.4256C8.24959 21 6.51485 21 5.15471 20.8172C3.75033 20.6284 2.59653 20.2283 1.68414 19.3159C0.771747 18.4035 0.371638 17.2497 0.182824 15.8453C-4.19021e-05 14.4852 -2.3069e-05 12.7504 5.3446e-07 10.5745V10.4255C-2.3069e-05 8.24957 -4.19021e-05 6.51485 0.182824 5.15471C0.371638 3.75033 0.771747 2.59653 1.68414 1.68414C2.59653 0.771747 3.75033 0.371638 5.15471 0.182824C6.51485 -4.19021e-05 8.24957 -2.3069e-05 10.4255 5.3446e-07ZM5.42121 2.16499C4.2386 2.32399 3.5772 2.6195 3.09835 3.09835C2.6195 3.5772 2.32399 4.2386 2.16499 5.42121C2.00212 6.63258 2 8.23256 2 10.5C2 12.7674 2.00212 14.3674 2.16499 15.5788C2.32399 16.7614 2.6195 17.4228 3.09835 17.9017C3.5772 18.3805 4.2386 18.676 5.42121 18.835C6.63258 18.9979 8.23256 19 10.5 19C12.7674 19 14.3674 18.9979 15.5788 18.835C16.7614 18.676 17.4228 18.3805 17.9017 17.9017C18.3805 17.4228 18.676 16.7614 18.835 15.5788C18.9979 14.3674 19 12.7674 19 10.5C19 8.23256 18.9979 6.63258 18.835 5.42121C18.676 4.2386 18.3805 3.5772 17.9017 3.09835C17.4228 2.6195 16.7614 2.32399 15.5788 2.16499C14.3674 2.00212 12.7674 2 10.5 2C8.23256 2 6.63258 2.00212 5.42121 2.16499Z" fill="var(--fill-0, #56524E)"/>
</g>
</svg>
