<svg width="24" height="24" viewBox="0 0 24 24" fill="none" xmlns="http://www.w3.org/2000/svg">
<path d="M17.5 5C17.5 4.44772 17.0523 4 16.5 4H7.5C6.94772 4 6.5 4.44772 6.5 5V18C6.5 18.5523 6.94772 19 7.5 19H16.5C17.0523 19 17.5 18.5523 17.5 18V5ZM19.5 18C19.5 19.6569 18.1569 21 16.5 21H7.5C5.84315 21 4.5 19.6569 4.5 18V5C4.5 3.34315 5.84315 2 7.5 2H16.5C18.1569 2 19.5 3.34315 19.5 5V18Z" fill="#56524E"/>
<path d="M21 17V7H18.5C17.9477 7 17.5 6.55228 17.5 6C17.5 5.44772 17.9477 5 18.5 5H21C22.1046 5 23 5.89543 23 7V17C23 18.1046 22.1046 19 21 19H18.5C17.9477 19 17.5 18.5523 17.5 18C17.5 17.4477 17.9477 17 18.5 17H21Z" fill="#56524E"/>
<path d="M1 17V7C1 5.89543 1.89543 5 3 5H5.5C6.05228 5 6.5 5.44772 6.5 6C6.5 6.55228 6.05228 7 5.5 7H3V17H5.5C6.05228 17 6.5 17.4477 6.5 18C6.5 18.5523 6.05228 19 5.5 19H3C1.89543 19 1 18.1046 1 17Z" fill="#56524E"/>
<path d="M15 14.5C15.5523 14.5 16 14.9477 16 15.5C16 16.0523 15.5523 16.5 15 16.5H9C8.44772 16.5 8 16.0523 8 15.5C8 14.9477 8.44772 14.5 9 14.5H15ZM15 10.5C15.5523 10.5 16 10.9477 16 11.5C16 12.0523 15.5523 12.5 15 12.5H9C8.44772 12.5 8 12.0523 8 11.5C8 10.9477 8.44772 10.5 9 10.5H15ZM15 6.5C15.5523 6.5 16 6.94772 16 7.5C16 8.05228 15.5523 8.5 15 8.5H9C8.44772 8.5 8 8.05228 8 7.5C8 6.94772 8.44772 6.5 9 6.5H15Z" fill="#56524E"/>
</svg>
