<svg preserveAspectRatio="xMidYMid meet" width="24" height="24" viewBox="0 0 24 24" fill="none" xmlns="http://www.w3.org/2000/svg">
<path fill-rule="evenodd" clip-rule="evenodd" d="M12 1C18.0751 1 23 5.92487 23 12C23 18.0751 18.0751 23 12 23C5.92487 23 1 18.0751 1 12C1 5.92487 5.92487 1 12 1ZM12 3C7.02944 3 3 7.02944 3 12C3 16.9706 7.02944 21 12 21C16.9706 21 21 16.9706 21 12C21 7.02944 16.9706 3 12 3ZM16.2426 8.75736C16.6331 9.14788 16.6331 9.78105 16.2426 10.1716L11.2426 15.1716C10.8521 15.5621 10.2189 15.5621 9.82843 15.1716L7.32843 12.6716C6.93791 12.2811 6.93791 11.6479 7.32843 11.2574C7.71895 10.8669 8.35212 10.8669 8.74264 11.2574L10.5355 13.0503L14.8284 8.75736C15.2189 8.36683 15.8521 8.36683 16.2426 8.75736Z" fill="#F67416"/>
</svg>