<svg preserveAspectRatio="xMidYMid meet" width="24" height="24" viewBox="0 0 24 24" fill="none" xmlns="http://www.w3.org/2000/svg">
<path d="M2 12C2 6.47715 6.47715 2 12 2C13.0044 2 13.9788 2.13459 14.9053 2.3877L15.2998 2.50391L15.3955 2.53906C15.8614 2.73895 16.1093 3.26376 15.9541 3.75781C15.7989 4.25149 15.296 4.53952 14.7998 4.4375L14.7002 4.41211L14.3789 4.31738C13.6221 4.11057 12.8247 4 12 4C7.02944 4 3 8.02944 3 13C3 17.9706 7.02944 22 12 22C16.9706 22 21 17.9706 21 13C21 12.1753 20.8894 11.3779 20.6826 10.6211L20.5879 10.2998L20.5625 10.2002C20.4605 9.70398 20.7485 9.20113 21.2422 9.0459C21.7362 8.89073 22.261 9.13862 22.4609 9.60449L22.4961 9.7002L22.6123 10.0947C22.8654 11.0212 23 11.9956 23 13C23 18.0751 18.0751 23 12 23C5.92487 23 1 18.0751 1 13L2 12ZM20.2568 3.33105C20.6263 2.9206 21.2585 2.88739 21.6689 3.25684C22.0794 3.6263 22.1126 4.25845 21.7432 4.66895L12.7432 14.6689C12.5597 14.8728 12.3006 14.9928 12.0264 15C11.7521 15.0072 11.487 14.901 11.293 14.707L8.29297 11.707L8.22461 11.6309C7.90426 11.2381 7.92685 10.6591 8.29297 10.293C8.65908 9.92685 9.23809 9.90426 9.63086 10.2246L9.70703 10.293L11.9609 12.5469L20.2568 3.33105Z" fill="#F67416"/>
</svg>
