<svg width="24" height="24" viewBox="0 0 24 24" fill="none" xmlns="http://www.w3.org/2000/svg">
<path d="M21 12C21 7.02944 16.9706 3 12 3C7.02944 3 3 7.02944 3 12C3 16.9706 7.02944 21 12 21C16.9706 21 21 16.9706 21 12ZM14 13V11.4141L9.70703 15.707C9.31651 16.0975 8.68349 16.0975 8.29297 15.707C7.90245 15.3165 7.90247 14.6835 8.29297 14.293L12.5859 10H11C10.4477 10 10 9.55229 10 9C10 8.44772 10.4477 8 11 8H15C15.5523 8 16 8.44772 16 9V13C16 13.5523 15.5523 14 15 14C14.4477 14 14 13.5523 14 13ZM23 12C23 18.0751 18.0751 23 12 23C5.92487 23 1 18.0751 1 12C1 5.92487 5.92487 1 12 1C18.0751 1 23 5.92487 23 12Z" fill="#56524E"/>
</svg>
