<svg preserveAspectRatio="xMidYMid meet" width="24" height="24" overflow="visible" style="display: block;" viewBox="0 0 22 22" fill="none" xmlns="http://www.w3.org/2000/svg">
<path id="Icon" d="M20 11C20 6.02944 15.9706 2 11 2C6.02944 2 2 6.02944 2 11C2 15.9706 6.02944 20 11 20C15.9706 20 20 15.9706 20 11ZM13 12V10.4141L8.70703 14.707C8.31651 15.0975 7.68349 15.0975 7.29297 14.707C6.90245 14.3165 6.90247 13.6835 7.29297 13.293L11.5859 9H10C9.44772 9 9 8.55228 9 8C9 7.44772 9.44772 7 10 7H14C14.5523 7 15 7.44772 15 8V12C15 12.5523 14.5523 13 14 13C13.4477 13 13 12.5523 13 12ZM22 11C22 17.0751 17.0751 22 11 22C4.92487 22 0 17.0751 0 11C0 4.92487 4.92487 0 11 0C17.0751 0 22 4.92487 22 11Z" fill="var(--fill-0, #56524E)"/>
</svg>
