<svg preserveAspectRatio="xMidYMid meet" width="24" height="24" overflow="visible" style="display: block;" viewBox="0 0 22 22" fill="none" xmlns="http://www.w3.org/2000/svg">
<path id="Vector (Stroke)" fill-rule="evenodd" clip-rule="evenodd" d="M0 11C0 4.92487 4.92487 0 11 0C15.9319 0 20.0541 3.24331 21.454 7.70035C21.5494 8.00409 21.4945 8.33511 21.3061 8.59176C21.1177 8.8484 20.8183 9 20.5 9H18C17.4477 9 17 8.55228 17 8C17 7.44772 17.4477 7 18 7H19.0244C17.558 4.03276 14.5288 2 11 2C6.02944 2 2 6.02944 2 11C2 15.9706 6.0294 20 11 20C11.5522 20 12 20.4477 12 21C12 21.5523 11.5522 22 11 22C4.92482 22 0 17.0751 0 11ZM11 6C11.5523 6 12 6.44772 12 7V10.5858L13.7071 12.2929C14.0976 12.6834 14.0976 13.3166 13.7071 13.7071C13.3166 14.0976 12.6834 14.0976 12.2929 13.7071L10.2929 11.7071C10.1054 11.5196 10 11.2652 10 11V7C10 6.44772 10.4477 6 11 6ZM21 10C21.5523 10 22 10.4477 22 11C22 11.3674 21.9834 11.7309 21.951 12.09C21.9013 12.64 21.4151 13.0456 20.8651 12.9959C20.3151 12.9463 19.9094 12.4601 19.9591 11.91C19.9862 11.6108 20 11.3072 20 11C20 10.4477 20.4477 10 21 10ZM20.6575 13.9104C21.1744 14.1051 21.4355 14.6819 21.2408 15.1987C21.0773 15.6328 20.8892 16.0541 20.6782 16.4607C20.4238 16.9508 19.8202 17.142 19.33 16.8876C18.8398 16.6332 18.6486 16.0295 18.903 15.5393C19.0777 15.2027 19.2336 14.8537 19.3692 14.4937C19.5639 13.9769 20.1407 13.7157 20.6575 13.9104ZM18.8491 17.5736C19.2539 17.9493 19.2774 18.582 18.9017 18.9868C18.5665 19.348 18.2085 19.6864 17.83 19.9996C17.4045 20.3518 16.7742 20.2923 16.4221 19.8668C16.0699 19.4413 16.1294 18.8109 16.5549 18.4588C16.8654 18.2019 17.1597 17.9237 17.4358 17.6262C17.8116 17.2214 18.4443 17.1978 18.8491 17.5736ZM15.9092 20.1914C16.1391 20.6936 15.9185 21.2871 15.4163 21.517C15.0582 21.681 14.6899 21.8257 14.3126 21.9499C13.7881 22.1225 13.2228 21.8372 13.0501 21.3126C12.8775 20.7881 13.1628 20.2228 13.6874 20.0501C13.9933 19.9494 14.2924 19.8319 14.5837 19.6985C15.0858 19.4686 15.6793 19.6893 15.9092 20.1914Z" fill="var(--fill-0, #56524E)"/>
</svg>
