<svg preserveAspectRatio="xMidYMid meet" width="24" height="24" overflow="visible" style="display: block;" viewBox="0 0 16 16" fill="none" xmlns="http://www.w3.org/2000/svg">
<path id="Icon" d="M14.2929 0.292937C14.6834 -0.0975498 15.3164 -0.0975498 15.7069 0.292937C16.0975 0.683451 16.0974 1.31647 15.7069 1.707L9.41397 7.99997L15.7069 14.2929L15.7763 14.3691C16.0963 14.7619 16.0729 15.341 15.7069 15.707C15.3408 16.073 14.7618 16.0958 14.3691 15.7754L14.2929 15.707L7.99991 9.41403L1.70694 15.707C1.31642 16.0975 0.683403 16.0975 0.292879 15.707C-0.0976168 15.3165 -0.0976358 14.6835 0.292879 14.2929L6.58585 7.99997L0.292879 1.707L0.22452 1.63083C-0.0957036 1.2381 -0.0730947 0.659024 0.292879 0.292937C0.659135 -0.0733194 1.23896 -0.0961585 1.63175 0.224577L1.70694 0.292937L7.99991 6.58591L14.2929 0.292937Z" fill="var(--fill-0, #56524E)"/>
</svg>
