<svg preserveAspectRatio="xMidYMid meet" width="24" height="24" overflow="visible" style="display: block;" viewBox="0 0 22 22" fill="none" xmlns="http://www.w3.org/2000/svg">
<path id="Icon" fill-rule="evenodd" clip-rule="evenodd" d="M4.63946 5.1551C1.98079 5.77173 0 8.15405 0 11C0 14.3137 2.68629 17 6 17H10V17.5H9C8.44772 17.5 8 17.9477 8 18.5V18.75H4C3.44772 18.75 3 19.1977 3 19.75C3 20.3023 3.44772 20.75 4 20.75H8V21C8 21.5523 8.44772 22 9 22H13C13.5523 22 14 21.5523 14 21V20.75H18C18.5523 20.75 19 20.3023 19 19.75C19 19.1977 18.5523 18.75 18 18.75H14V18.5C14 17.9477 13.5523 17.5 13 17.5H12V17H16.5C19.5376 17 22 14.5376 22 11.5C22 8.79943 20.0536 6.55346 17.4872 6.08835C17.2748 2.69029 14.4516 0 11 0C7.87108 0 5.25929 2.21021 4.63946 5.1551ZM6.74013 5.04528C7.80474 5.17645 8.78432 5.58679 9.60116 6.20051C10.0427 6.53225 10.1317 7.15913 9.79998 7.60068C9.46824 8.04222 8.84136 8.13124 8.39981 7.79949C7.73131 7.29723 6.90181 7 6 7C5.86991 7 5.74155 7.00618 5.61516 7.0182C3.58707 7.2112 2 8.92085 2 11C2 13.2091 3.79086 15 6 15H16.5C18.433 15 20 13.433 20 11.5C20 9.8434 18.8491 8.45561 17.3032 8.09261C17.0642 9.04102 16.617 9.90646 16.0139 10.6368C15.6622 11.0626 15.0319 11.1227 14.6061 10.771C14.1802 10.4194 14.1201 9.78906 14.4718 9.36322C15.0334 8.6832 15.3981 7.83737 15.4816 6.9103C15.4938 6.7754 15.5 6.63855 15.5 6.5C15.5 4.01472 13.4853 2 11 2C9.02397 2 7.34477 3.27416 6.74013 5.04528ZM12 19.5H10V20H12V19.5Z" fill="var(--fill-0, #56524E)"/>
</svg>
