<svg preserveAspectRatio="xMidYMid meet" width="24" height="24" overflow="visible" style="display: block;" viewBox="0 0 22 22" fill="none" xmlns="http://www.w3.org/2000/svg">
<path id="Icon" fill-rule="evenodd" clip-rule="evenodd" d="M13 2C9.13401 2 6 5.13401 6 9C6 12.866 9.13401 16 13 16C16.866 16 20 12.866 20 9C20 5.13401 16.866 2 13 2ZM4 9C4 4.02944 8.02944 0 13 0C17.9706 0 22 4.02944 22 9C22 13.9706 17.9706 18 13 18C8.02944 18 4 13.9706 4 9ZM2.54136 8.97306C3.01633 9.25488 3.1729 9.86839 2.89107 10.3434C2.32518 11.2971 2 12.4103 2 13.6025C2 17.1357 4.86426 20 8.3975 20C9.58972 20 10.7029 19.6748 11.6567 19.1089C12.1316 18.8271 12.7451 18.9837 13.0269 19.4586C13.3088 19.9336 13.1522 20.5471 12.6772 20.8289C11.4232 21.573 9.95867 22 8.3975 22C3.75969 22 0 18.2403 0 13.6025C0 12.0413 0.426955 10.5768 1.17107 9.32277C1.4529 8.84781 2.0664 8.69123 2.54136 8.97306Z" fill="var(--fill-0, #56524E)"/>
</svg>
