<svg preserveAspectRatio="xMidYMid meet" width="24" height="24" overflow="visible" style="display: block;" viewBox="0 0 22 22" fill="none" xmlns="http://www.w3.org/2000/svg">
<path id="Icon" fill-rule="evenodd" clip-rule="evenodd" d="M21.7071 0.292893C22.0976 0.683418 22.0976 1.31658 21.7071 1.70711L19.8986 3.51564C21.5583 5.84827 21.3423 9.10562 19.2504 11.1975L17.9479 12.5C17.1668 13.281 15.9005 13.281 15.1194 12.5L15.0168 12.3974L14.2071 13.2071C13.8166 13.5976 13.1834 13.5976 12.7929 13.2071C12.4024 12.8166 12.4024 12.1834 12.7929 11.7929L13.6026 10.9832L11.0168 8.39738L10.2071 9.20711C9.81658 9.59763 9.18342 9.59763 8.79289 9.20711C8.40237 8.81658 8.40237 8.18342 8.79289 7.79289L9.60262 6.98317L9.5 6.88055C8.71895 6.0995 8.71895 4.83317 9.5 4.05212L10.8025 2.74961C12.8944 0.657743 16.1517 0.44168 18.4844 2.10143L20.2929 0.292893C20.6834 -0.0976311 21.3166 -0.097631 21.7071 0.292893ZM17.8362 4.16382C16.2844 2.61206 13.7685 2.61206 12.2167 4.16383L10.9142 5.46634L16.5337 11.0858L17.8362 9.78328C19.3879 8.23151 19.3879 5.71559 17.8362 4.16382ZM4.05212 9.5C4.83317 8.71895 6.0995 8.71895 6.88055 9.5L12.5 15.1195C13.2811 15.9005 13.281 17.1668 12.5 17.9479L11.1975 19.2504C9.10562 21.3423 5.84827 21.5583 3.51565 19.8986L1.70711 21.7071C1.31658 22.0976 0.683417 22.0976 0.292893 21.7071C-0.0976311 21.3166 -0.0976311 20.6834 0.292893 20.2929L2.10143 18.4844C0.441682 16.1517 0.657743 12.8944 2.74961 10.8025L4.05212 9.5ZM11.0858 16.5337L5.46634 10.9142L4.16383 12.2167C2.61206 13.7685 2.61206 16.2844 4.16383 17.8362C5.71559 19.3879 8.23151 19.3879 9.78328 17.8362L11.0858 16.5337Z" fill="var(--fill-0, #56524E)"/>
</svg>
