<svg preserveAspectRatio="xMidYMid meet" width="24" height="24" overflow="visible" style="display: block;" viewBox="0 0 22 22" fill="none" xmlns="http://www.w3.org/2000/svg">
<path id="Icon" fill-rule="evenodd" clip-rule="evenodd" d="M3.0007 2C2.44814 1.99961 2 2.44744 2 3V13.9986C2 14.5509 2.44772 14.9986 3 14.9986H7L7 10C7 8.34233 8.34444 6.99885 10.0021 7.00002L15 7.00354V3.00767C15 2.45566 14.5527 2.00806 14.0007 2.00767L3.0007 2ZM17 7.00495V3.00767C17 1.35164 15.6581 0.00882939 14.0021 0.00767419L3.00209 7.45876e-07C1.34442 -0.00115558 0 1.34233 0 3V13.9986C0 15.6555 1.34315 16.9986 3 16.9986H7V18.9986C7 20.6555 8.34315 21.9986 10 21.9986H19C20.6569 21.9986 22 20.6555 22 18.9986V10.0064C22 8.35033 20.6581 7.00753 19.0021 7.00636L17 7.00495ZM10.0007 9.00002C9.44814 8.99963 9 9.44745 9 10V18.9986C9 19.5509 9.44771 19.9986 10 19.9986H19C19.5523 19.9986 20 19.5509 20 18.9986V10.0064C20 9.45435 19.5527 9.00675 19.0007 9.00636L10.0007 9.00002Z" fill="var(--fill-0, #56524E)"/>
</svg>
