<svg preserveAspectRatio="xMidYMid meet" width="24" height="24" overflow="visible" style="display: block;" viewBox="0 0 22 20" fill="none" xmlns="http://www.w3.org/2000/svg">
<path id="Icon" fill-rule="evenodd" clip-rule="evenodd" d="M3.0185 6.51391C2.85676 6.58259 2.70011 6.66672 2.55076 6.76615L0.891609 7.8708C0.334629 8.24163 0 8.86644 0 9.53557V12.4644C0 13.1336 0.33463 13.7584 0.891609 14.1292L2.55076 15.2338L3.07356 14.4486L2.55076 15.2338C3.40522 15.8027 4.49886 15.8706 5.41708 15.4117C6.38717 14.9268 7 13.9355 7 12.851V9.14905C7 8.06455 6.38717 7.07316 5.41708 6.58832C5.29409 6.52686 5.16796 6.47484 5.03967 6.43221C5.37403 4.04418 7.78819 2 11 2C14.2118 2 16.626 4.04419 16.9603 6.43222C16.832 6.47484 16.7059 6.52686 16.5829 6.58832C15.6128 7.07316 15 8.06455 15 9.14905V12.851C15 13.9355 15.6128 14.9268 16.5829 15.4117C16.7186 15.4795 16.858 15.5358 17 15.5807V17C17 17.5523 16.5523 18 16 18H11C10.4477 18 10 18.4477 10 19C10 19.5523 10.4477 20 11 20H16C17.6569 20 19 18.6569 19 17V15.4782C19.1552 15.411 19.3056 15.3295 19.4492 15.2338L21.1084 14.1292C21.6654 13.7584 22 13.1336 22 12.4644V9.53557C22 8.86644 21.6654 8.24163 21.1084 7.8708L19.4492 6.76615C19.2999 6.66672 19.1432 6.5826 18.9815 6.51392C18.6939 2.75503 15.0936 0 11 0C6.90642 0 3.30608 2.75503 3.0185 6.51391ZM4.52296 8.37733C4.24624 8.23903 3.91666 8.25948 3.65915 8.43092L2 9.53557V12.4644L3.65915 13.5691L3.10496 14.4015L3.65915 13.5691C3.91666 13.7405 4.24624 13.761 4.52296 13.6227C4.81531 13.4766 5 13.1778 5 12.851V9.14905C5 8.82222 4.81531 8.52345 4.52296 8.37733ZM18.3408 8.43092C18.0833 8.25948 17.7538 8.23903 17.477 8.37733C17.1847 8.52345 17 8.82222 17 9.14905V12.851C17 13.1778 17.1847 13.4766 17.477 13.6227C17.7538 13.761 18.0833 13.7405 18.3408 13.5691L20 12.4644V9.53557L18.3408 8.43092Z" fill="var(--fill-0, #56524E)"/>
</svg>
