<svg preserveAspectRatio="xMidYMid meet" width="24" height="24" overflow="visible" style="display: block;" viewBox="0 0 20 22" fill="none" xmlns="http://www.w3.org/2000/svg">
<path id="Icon" fill-rule="evenodd" clip-rule="evenodd" d="M5.5 0C6.05228 0 6.5 0.447715 6.5 1V1.5H13.5V1C13.5 0.447715 13.9477 0 14.5 0C15.0523 0 15.5 0.447715 15.5 1V1.5H17C18.6569 1.5 20 2.84315 20 4.5V7.99803C20 7.99868 20 7.99934 20 8C20 8.00066 20 8.00132 20 8.00197V11C20 11.5523 19.5523 12 19 12C18.4477 12 18 11.5523 18 11V9H2V18.5C2 19.0523 2.44772 19.5 3 19.5H9C9.55228 19.5 10 19.9477 10 20.5C10 21.0523 9.55228 21.5 9 21.5H3C1.34315 21.5 0 20.1569 0 18.5V4.5C0 2.84315 1.34315 1.5 3 1.5H4.5V1C4.5 0.447715 4.94772 0 5.5 0ZM4.5 3.5H3C2.44772 3.5 2 3.94772 2 4.5V7H18V4.5C18 3.94772 17.5523 3.5 17 3.5H15.5V4.5C15.5 5.05228 15.0523 5.5 14.5 5.5C13.9477 5.5 13.5 5.05228 13.5 4.5V3.5H6.5V4.5C6.5 5.05228 6.05228 5.5 5.5 5.5C4.94772 5.5 4.5 5.05228 4.5 4.5V3.5ZM15 14C13.3431 14 12 15.3431 12 17C12 18.6569 13.3431 20 15 20C16.6569 20 18 18.6569 18 17C18 15.3431 16.6569 14 15 14ZM16 16.5858L16.7071 17.2929C17.0976 17.6834 17.0976 18.3166 16.7071 18.7071C16.3166 19.0976 15.6834 19.0976 15.2929 18.7071L14.2929 17.7071C14.1054 17.5196 14 17.2652 14 17V15C14 14.4477 14.4477 14 15 14C15.5523 14 16 14.4477 16 15V16.5858ZM10 17C10 14.2386 12.2386 12 15 12C17.7614 12 20 14.2386 20 17C20 19.7614 17.7614 22 15 22C12.2386 22 10 19.7614 10 17Z" fill="var(--fill-0, #56524E)"/>
</svg>
