<svg preserveAspectRatio="xMidYMid meet" width="24" height="24" overflow="visible" style="display: block;" viewBox="0 0 22 22" fill="none" xmlns="http://www.w3.org/2000/svg">
<path id="Vector (Stroke)" fill-rule="evenodd" clip-rule="evenodd" d="M13.5848 0.585833C14.3659 -0.19526 15.6322 -0.19528 16.4133 0.585787L20.9991 5.17155C21.7801 5.9526 21.7801 7.21893 20.9991 7.99997L17.7324 11.2666C17.7242 11.2755 17.7157 11.2842 17.7071 11.2929C17.6985 11.3015 17.6897 11.3099 17.6809 11.3182L7.70618 21.2929C7.51865 21.4804 7.26429 21.5858 6.99908 21.5858H1C0.447715 21.5858 0 21.138 0 20.5858V14.5858C0 14.3206 0.105348 14.0662 0.29287 13.8787L13.5848 0.585833ZM16.9995 9.17109L19.5849 6.58576L14.9991 2L12.4139 4.58541L16.9995 9.17109ZM10.9997 5.99967L15.5853 10.5853L6.58486 19.5858H2V15L10.9997 5.99967ZM12 20.5858C12 20.0335 12.4477 19.5858 13 19.5858H21C21.5523 19.5858 22 20.0335 22 20.5858C22 21.138 21.5523 21.5858 21 21.5858H13C12.4477 21.5858 12 21.138 12 20.5858Z" fill="var(--fill-0, #56524E)"/>
</svg>
