<svg width="24" height="24" viewBox="0 0 24 24" fill="none" xmlns="http://www.w3.org/2000/svg">
<path d="M1 19V4C1 2.89543 1.89543 2 3 2H8.50195C9.12881 2 9.71966 2.2939 10.0977 2.79395L12.5156 5.99414H20C21.6567 5.99414 22.9998 7.33743 23 8.99414V10C23 10.5523 22.5523 11 22 11C21.4477 11 21 10.5523 21 10V8.99414C20.9998 8.442 20.5522 7.99414 20 7.99414H8C7.44772 7.99414 7 7.54643 7 6.99414C7.00017 6.442 7.44782 5.99414 8 5.99414H10.0088L8.50195 4H3V19C3 19.5523 3.44772 20 4 20H12C12.5523 20 13 20.4477 13 21C13 21.5523 12.5523 22 12 22H4C2.34315 22 1 20.6569 1 19ZM20.2002 16.5C20.2002 15.2235 19.194 14.2275 18 14.2275C16.806 14.2275 15.7998 15.2235 15.7998 16.5C15.7998 17.7765 16.806 18.7725 18 18.7725C19.194 18.7725 20.2002 17.7765 20.2002 16.5ZM22.2002 16.5C22.2002 16.9465 22.1309 17.3778 22.0049 17.7842L22.5234 18.1025C22.9938 18.3915 23.1412 19.007 22.8525 19.4775C22.5637 19.9483 21.9473 20.0955 21.4766 19.8066L20.9844 19.5049C20.4494 20.0556 19.7678 20.4591 19 20.6494V21C19 21.5523 18.5523 22 18 22C17.4477 22 17 21.5523 17 21V20.6494C16.232 20.459 15.5497 20.0559 15.0146 19.5049L14.5234 19.8066C14.0527 20.0955 13.4363 19.9483 13.1475 19.4775C12.8588 19.007 13.0062 18.3915 13.4766 18.1025L13.9941 17.7842C13.8682 17.3779 13.7998 16.9464 13.7998 16.5C13.7998 16.0533 13.868 15.6214 13.9941 15.2148L13.4775 14.8975L13.3926 14.8398C12.9898 14.5324 12.8777 13.9637 13.1484 13.5225C13.4193 13.0812 13.977 12.9243 14.4336 13.1445L14.5234 13.1934L15.0146 13.4941C15.5497 12.9433 16.2321 12.5399 17 12.3496V12C17 11.4477 17.4477 11 18 11C18.5523 11 19 11.4477 19 12V12.3496C19.7676 12.5399 20.4494 12.9436 20.9844 13.4941L21.4766 13.1934L21.5664 13.1445C22.023 12.9243 22.5807 13.0812 22.8516 13.5225C23.1404 13.9932 22.9931 14.6086 22.5225 14.8975L22.0049 15.2148C22.131 15.6215 22.2002 16.0532 22.2002 16.5Z" fill="#56524E"/>
</svg>
