<svg preserveAspectRatio="xMidYMid meet" width="24" height="24" overflow="visible" style="display: block;" viewBox="0 0 22 22" fill="none" xmlns="http://www.w3.org/2000/svg">
<path id="Icon" fill-rule="evenodd" clip-rule="evenodd" d="M2.22302 9C2.07706 9.64322 2 10.3126 2 11C2 11.6874 2.07706 12.3568 2.22302 13H6.13809C6.04964 12.3606 6 11.6931 6 11C6 10.3069 6.04964 9.63936 6.13809 9H2.22302ZM2.93552 7H6.55532C6.96542 5.5336 7.55104 4.27012 8.13176 3.25386C8.3317 2.90396 8.53176 2.58212 8.72494 2.29003C6.18439 2.95178 4.08067 4.69568 2.93552 7ZM11 2.54216C10.6737 2.96628 10.2713 3.54085 9.86824 4.24614C9.42504 5.02175 8.98543 5.94776 8.64409 7H13.3559C13.0146 5.94776 12.575 5.02175 12.1318 4.24614C11.7287 3.54085 11.3263 2.96628 11 2.54216ZM13.8397 9H8.16027C8.0582 9.6361 8 10.304 8 11C8 11.696 8.0582 12.3639 8.16027 13H13.8397C13.9418 12.3639 14 11.696 14 11C14 10.304 13.9418 9.6361 13.8397 9ZM15.8619 13C15.9504 12.3606 16 11.6931 16 11C16 10.3069 15.9504 9.63936 15.8619 9H19.777C19.9229 9.64322 20 10.3126 20 11C20 11.6874 19.9229 12.3568 19.777 13H15.8619ZM13.3559 15H8.64409C8.98543 16.0522 9.42504 16.9782 9.86824 17.7539C10.2713 18.4592 10.6737 19.0337 11 19.4578C11.3263 19.0337 11.7287 18.4592 12.1318 17.7539C12.575 16.9782 13.0146 16.0522 13.3559 15ZM8.72494 19.71C8.53176 19.4179 8.3317 19.096 8.13176 18.7461C7.55104 17.7299 6.96542 16.4664 6.55532 15H2.93552C4.08067 17.3043 6.18439 19.0482 8.72494 19.71ZM13.2751 19.71C13.4682 19.4179 13.6683 19.096 13.8682 18.7461C14.449 17.7299 15.0346 16.4664 15.4447 15H19.0645C17.9193 17.3043 15.8156 19.0482 13.2751 19.71ZM19.0645 7H15.4447C15.0346 5.5336 14.449 4.27012 13.8682 3.25386C13.6683 2.90396 13.4682 2.58212 13.2751 2.29003C15.8156 2.95178 17.9193 4.69568 19.0645 7ZM0 11C0 4.92487 4.92487 0 11 0C17.0751 0 22 4.92487 22 11C22 17.0751 17.0751 22 11 22C4.92487 22 0 17.0751 0 11Z" fill="var(--fill-0, #56524E)"/>
</svg>
