<svg preserveAspectRatio="xMidYMid meet" width="24" height="24" overflow="visible" style="display: block;" viewBox="0 0 22 22" fill="none" xmlns="http://www.w3.org/2000/svg">
<path id="Icon" fill-rule="evenodd" clip-rule="evenodd" d="M11 2C6.02944 2 2 6.02944 2 11C2 15.9706 6.02944 20 11 20C15.9706 20 20 15.9706 20 11C20 6.02944 15.9706 2 11 2ZM0 11C0 4.92487 4.92487 0 11 0C17.0751 0 22 4.92487 22 11C22 17.0751 17.0751 22 11 22C4.92487 22 0 17.0751 0 11ZM11 7.5C10.4477 7.5 10 7.94772 10 8.5C10 9.05229 9.55229 9.5 9 9.5C8.44772 9.5 8 9.05229 8 8.5C8 6.84315 9.34315 5.5 11 5.5C12.6569 5.5 14 6.84315 14 8.5C14 9.09573 13.8253 9.65372 13.5241 10.1219C13.3433 10.4028 13.1337 10.6684 12.9471 10.9004C12.9122 10.9437 12.8781 10.9859 12.8449 11.027C12.6904 11.2182 12.5532 11.3881 12.426 11.5629C12.1099 11.9973 12 12.277 12 12.5C12 13.0523 11.5523 13.5 11 13.5C10.4477 13.5 10 13.0523 10 12.5C10 11.6184 10.4328 10.903 10.8088 10.3862C10.9687 10.1665 11.1441 9.94943 11.2993 9.75756C11.33 9.71951 11.36 9.68246 11.3889 9.64656C11.5739 9.41666 11.7241 9.2232 11.8422 9.03967C11.942 8.88454 12 8.70057 12 8.5C12 7.94772 11.5523 7.5 11 7.5ZM10 15.5C10 14.9477 10.4477 14.5 11 14.5H11.009C11.5613 14.5 12.009 14.9477 12.009 15.5C12.009 16.0523 11.5613 16.5 11.009 16.5H11C10.4477 16.5 10 16.0523 10 15.5Z" fill="var(--fill-0, #56524E)"/>
</svg>
