<svg preserveAspectRatio="xMidYMid meet" width="24" height="24" overflow="visible" style="display: block;" viewBox="0 0 21 21" fill="none" xmlns="http://www.w3.org/2000/svg">
<path id="Icon" fill-rule="evenodd" clip-rule="evenodd" d="M19 3C19 2.4475 18.552 1.9997 17.9995 2L2.99946 2.00811C2.44738 2.00841 2 2.45604 2 3.00811V5.99892H19V3ZM19 7.99892H2V17.9989C2 18.5512 2.44772 18.9989 3 18.9989H18C18.5523 18.9989 19 18.5512 19 17.9989V7.99892ZM17.9984 4.4845e-07C19.6559 -0.000896065 21 1.34251 21 3V17.9989C21 19.6558 19.6569 20.9989 18 20.9989H3C1.34315 20.9989 0 19.6558 0 17.9989V3.00811C0 1.35189 1.34216 0.00900945 2.99838 0.00811365L17.9984 4.4845e-07ZM4 3.99892C4 3.44663 4.44772 2.99892 5 2.99892H5.00896C5.56124 2.99892 6.00896 3.44663 6.00896 3.99892C6.00896 4.5512 5.56124 4.99892 5.00896 4.99892H5C4.44772 4.99892 4 4.5512 4 3.99892ZM7.99102 3.99892C7.99102 3.44663 8.43874 2.99892 8.99102 2.99892H9C9.55229 2.99892 10 3.44663 10 3.99892C10 4.5512 9.55229 4.99892 9 4.99892H8.99102C8.43874 4.99892 7.99102 4.5512 7.99102 3.99892ZM5.29289 10.7918C5.68342 10.4013 6.31658 10.4013 6.70711 10.7918L8.70711 12.7918C9.09763 13.1823 9.09763 13.8155 8.70711 14.206L6.70711 16.206C6.31658 16.5965 5.68342 16.5965 5.29289 16.206C4.90237 15.8155 4.90237 15.1823 5.29289 14.7918L6.58579 13.4989L5.29289 12.206C4.90237 11.8155 4.90237 11.1823 5.29289 10.7918ZM10 15.4989C10 14.9466 10.4477 14.4989 11 14.4989H14C14.5523 14.4989 15 14.9466 15 15.4989C15 16.0512 14.5523 16.4989 14 16.4989H11C10.4477 16.4989 10 16.0512 10 15.4989Z" fill="var(--fill-0, #56524E)"/>
</svg>
