<svg preserveAspectRatio="xMidYMid meet" width="24" height="24" overflow="visible" style="display: block;" viewBox="0 0 20 16" fill="none" xmlns="http://www.w3.org/2000/svg">
<path id="Icon" fill-rule="evenodd" clip-rule="evenodd" d="M11.6173 0.0761497C11.991 -0.0786313 12.4211 0.00692445 12.7071 0.292922L19.7071 7.29292C20.0976 7.68345 20.0976 8.31661 19.7071 8.70714L12.7071 15.7071C12.4211 15.9931 11.991 16.0787 11.6173 15.9239C11.2436 15.7691 11 15.4045 11 15V11.5H8.81665C6.14183 11.5 3.64398 12.8368 2.16025 15.0624L2 14.9556L2.16025 15.0624L1.83205 15.5547C1.58761 15.9214 1.13197 16.0848 0.710215 15.9571C0.288457 15.8294 0 15.4407 0 15V11.5C0 7.63404 3.13401 4.50003 7 4.50003H11V1.00003C11 0.595567 11.2436 0.230931 11.6173 0.0761497ZM2 12.1832C3.8304 10.478 6.25879 9.50003 8.81665 9.50003H12C12.5523 9.50003 13 9.94774 13 10.5V12.5858L17.5858 8.00003L13 3.41424V5.50003C13 6.05231 12.5523 6.50003 12 6.50003H7C4.23858 6.50003 2 8.73861 2 11.5V12.1832Z" fill="var(--fill-0, #56524E)"/>
</svg>
