<svg width="24" height="24" viewBox="0 0 24 24" fill="none" xmlns="http://www.w3.org/2000/svg">
<path d="M13.5 9C13.5 8.17157 12.8284 7.5 12 7.5C11.1716 7.5 10.5 8.17157 10.5 9C10.5 9.82843 11.1716 10.5 12 10.5C12.8284 10.5 13.5 9.82843 13.5 9ZM15.5 9C15.5 10.933 13.933 12.5 12 12.5C10.067 12.5 8.5 10.933 8.5 9C8.5 7.067 10.067 5.5 12 5.5C13.933 5.5 15.5 7.067 15.5 9Z" fill="#56524E"/>
<path d="M18 9.2002C18 5.74929 15.2873 3 12 3C8.71266 3 6 5.74929 6 9.2002C6.00007 11.2158 7.07505 12.9286 8.44238 14.2881C9.76663 15.6047 11.2704 16.4905 12 16.8789C12.7296 16.4905 14.2334 15.6047 15.5576 14.2881C16.925 12.9286 17.9999 11.2158 18 9.2002ZM20 9.2002C19.9999 11.9651 18.5243 14.1584 16.9678 15.7061C15.6009 17.065 14.0926 18.0072 13.209 18.499L12.8711 18.6826C12.3913 18.9349 11.8372 18.9656 11.3389 18.7764L11.1289 18.6826C10.3407 18.2683 8.59432 17.2591 7.03223 15.7061C5.47566 14.1584 4.00007 11.9651 4 9.2002C4 4.6982 7.55535 1 12 1C16.4446 1 20 4.6982 20 9.2002Z" fill="#56524E"/>
<path d="M5 19C5 18.4477 5.44772 18 6 18C6.55228 18 7 18.4477 7 19C7 19.2456 7.22505 19.7369 8.2041 20.2266C9.12377 20.6864 10.4647 21 12 21C13.5353 21 14.8762 20.6864 15.7959 20.2266C16.7749 19.7369 17 19.2456 17 19C17 18.4477 17.4477 18 18 18C18.5523 18 19 18.4477 19 19C19 20.4113 17.8815 21.4196 16.6895 22.0156C15.4376 22.6415 13.7783 23 12 23C10.2217 23 8.56242 22.6415 7.31055 22.0156C6.11846 21.4196 5 20.4113 5 19Z" fill="#56524E"/>
</svg>
