<svg preserveAspectRatio="xMidYMid meet" width="24" height="24" overflow="visible" style="display: block;" viewBox="0 0 20 20" fill="none" xmlns="http://www.w3.org/2000/svg">
<path id="Icon" d="M0 10C0 4.41746 4.80734 0.000198783 10.5996 0C11.1206 0 11.6338 0.0357425 12.1357 0.104492L12.2363 0.123047C12.7289 0.24218 13.0613 0.717602 12.9912 1.23047C12.9163 1.77764 12.4114 2.16089 11.8643 2.08594L11.5537 2.04883C11.2408 2.01674 10.9223 2 10.5996 2C5.78837 2.0002 2 5.64165 2 10C2 14.3583 5.78837 17.9998 10.5996 18C11.0297 18 11.4521 17.9705 11.8643 17.9141C12.4114 17.8391 12.9163 18.2224 12.9912 18.7695C13.066 19.3166 12.6828 19.8205 12.1357 19.8955C11.6338 19.9643 11.1206 20 10.5996 20C4.80734 19.9998 0 15.5825 0 10ZM15.793 6.79297C16.1591 6.42685 16.7381 6.40426 17.1309 6.72461L17.207 6.79297L19.707 9.29297C20.0976 9.68349 20.0976 10.3165 19.707 10.707L17.207 13.207C16.8165 13.5976 16.1835 13.5976 15.793 13.207C15.4024 12.8165 15.4024 12.1835 15.793 11.793L16.5859 11H9C8.44772 11 8 10.5523 8 10C8 9.44772 8.44772 9 9 9H16.5859L15.793 8.20703L15.7246 8.13086C15.4043 7.73809 15.4269 7.15908 15.793 6.79297Z" fill="var(--fill-0, #56524E)"/>
</svg>
