<svg preserveAspectRatio="xMidYMid meet" width="24" height="24" overflow="visible" style="display: block;" viewBox="0 0 24 24" fill="none" xmlns="http://www.w3.org/2000/svg">
<g id="Icon">
<path d="M12 0C14.7614 0 17 2.23858 17 5L7 5C7 2.23858 9.23858 0 12 0Z" fill="var(--fill-0, #56524E)"/>
<path d="M6 12C6 8.68629 8.68629 6 12 6C15.3137 6 18 8.68629 18 12C18 15.3137 15.3137 18 12 18C8.68629 18 6 15.3137 6 12Z" fill="var(--fill-0, #56524E)"/>
<path d="M5 7C2.23858 7 0 9.23858 0 12C0 14.7614 2.23858 17 5 17V7Z" fill="var(--fill-0, #56524E)"/>
<path d="M24 12C24 14.7614 21.7614 17 19 17V7C21.7614 7 24 9.23858 24 12Z" fill="var(--fill-0, #56524E)"/>
<path d="M7 19C7 21.7614 9.23858 24 12 24C14.7614 24 17 21.7614 17 19H7Z" fill="var(--fill-0, #56524E)"/>
<path d="M19 2C20.6569 2 22 3.34315 22 5H19V2Z" fill="var(--fill-0, #56524E)"/>
<path d="M19 22C20.6569 22 22 20.6569 22 19H19V22Z" fill="var(--fill-0, #56524E)"/>
<path d="M2 5C2 3.34315 3.34315 2 5 2V5H2Z" fill="var(--fill-0, #56524E)"/>
<path d="M2 19C2 20.6569 3.34315 22 5 22V19H2Z" fill="var(--fill-0, #56524E)"/>
</g>
</svg>
