<svg preserveAspectRatio="xMidYMid meet" width="24" height="24" overflow="visible" style="display: block;" viewBox="0 0 22 20" fill="none" xmlns="http://www.w3.org/2000/svg">
<path id="Icon" fill-rule="evenodd" clip-rule="evenodd" d="M6.5 2C6.5 0.895431 7.39543 0 8.5 0H13.5C14.6046 0 15.5 0.89543 15.5 2V7C15.5 8.10457 14.6046 9 13.5 9H8.5C7.39543 9 6.5 8.10457 6.5 7V2ZM13.5 2H8.5V7H13.5V2ZM0 13C0 11.8954 0.89543 11 2 11H7C8.10457 11 9 11.8954 9 13V18C9 19.1046 8.10457 20 7 20H2C0.895431 20 0 19.1046 0 18V13ZM7 13H2V18H7V13ZM13 13C13 11.8954 13.8954 11 15 11H20C21.1046 11 22 11.8954 22 13V18C22 19.1046 21.1046 20 20 20H15C13.8954 20 13 19.1046 13 18V13ZM20 13H15V18H20V13Z" fill="var(--fill-0, #56524E)"/>
</svg>
