<svg preserveAspectRatio="xMidYMid meet" width="24" height="24" overflow="visible" style="display: block;" viewBox="0 0 20 22" fill="none" xmlns="http://www.w3.org/2000/svg">
<path id="Icon" fill-rule="evenodd" clip-rule="evenodd" d="M7.49006 2.63246C7.05837 1.33739 8.02231 0 9.38743 0H10.6126C11.9777 0 12.9416 1.33739 12.5099 2.63246L12.2778 3.32893C15.5864 4.30988 18 7.37308 18 11V12.6492L19.7809 14.8753C19.9227 15.0526 20 15.2729 20 15.5V17C20 18.1046 19.1046 19 18 19H13.8729C13.4236 20.7304 11.8367 22 9.97591 22C8.09996 22 6.56119 20.719 6.12442 19H2C0.895431 19 0 18.1046 0 17V15.5C0 15.2729 0.0772808 15.0526 0.219131 14.8753L2 12.6492V11C2 7.37308 4.41358 4.30988 7.72222 3.32893L7.49006 2.63246ZM9.72076 3H10.2792L10.6126 2H9.38743L9.72076 3ZM8.26003 19C8.59952 19.6007 9.23816 20 9.97591 20C10.7238 20 11.3765 19.5955 11.7269 19H8.26003ZM10 5C6.68629 5 4 7.68629 4 11V13C4 13.2271 3.92272 13.4474 3.78087 13.6247L2 15.8508V17H18V15.8508L16.2191 13.6247C16.0773 13.4474 16 13.2271 16 13V11C16 7.68629 13.3137 5 10 5Z" fill="var(--fill-0, #56524E)"/>
</svg>
