<svg preserveAspectRatio="xMidYMid meet" width="24" height="24" overflow="visible" style="display: block;" viewBox="0 0 22 22" fill="none" xmlns="http://www.w3.org/2000/svg">
<path id="Icon" fill-rule="evenodd" clip-rule="evenodd" d="M13 2C10.7909 2 9 3.79085 9 6C9 8.20906 10.7909 10 13 10C15.2091 10 17 8.20906 17 6C17 3.79085 15.2091 2 13 2ZM7 6C7 2.68628 9.68628 0 13 0C16.3137 0 19 2.68628 19 6C19 9.31361 16.3137 12 13 12C9.68627 12 7 9.31361 7 6ZM0 13.5C0 12.3954 0.895431 11.5 2 11.5H4C4.74028 11.5 5.38663 11.9022 5.73244 12.5H10.75C11.9926 12.5 13 13.5074 13 14.75C13 14.8344 12.9953 14.9178 12.9863 14.9998H14.6729L18.083 12.5018C19.0512 11.7607 20.421 11.8488 21.2857 12.7111C22.2947 13.7172 22.2255 15.3692 21.1367 16.2879L21.1236 16.2988L16.7353 19.8755C15.8431 20.6027 14.7274 20.9998 13.5764 20.9998L5.73244 21C5.38664 21.5978 4.74029 22 4 22H2C0.895431 22 0 21.1046 0 20V13.5ZM6 19L13.5764 18.9998C14.267 18.9998 14.9364 18.7616 15.4717 18.3253L19.8516 14.7554C20.0403 14.5917 20.0506 14.3039 19.8735 14.1273C19.7183 13.9725 19.4703 13.9568 19.2964 14.0917C19.2892 14.0973 19.2819 14.1028 19.2745 14.1082L15.5909 16.8066C15.4195 16.9321 15.2125 16.9998 15 16.9998H10.777C10.768 16.9999 10.759 17 10.75 17H8.5C7.94772 17 7.5 16.5523 7.5 16C7.5 15.4477 7.94772 15 8.5 15H9.98203C9.988 14.9999 9.994 14.9998 10 14.9998H10.759C10.8929 14.9951 11 14.8851 11 14.75C11 14.6119 10.8881 14.5 10.75 14.5H6V19ZM4 13.5H2V20H4V13.5Z" fill="var(--fill-0, #56524E)"/>
</svg>
