<svg preserveAspectRatio="xMidYMid meet" width="24" height="24" overflow="visible" style="display: block;" viewBox="0 0 22 18" fill="none" xmlns="http://www.w3.org/2000/svg">
<path id="Icon" fill-rule="evenodd" clip-rule="evenodd" d="M0 2C0 0.895431 0.89543 0 2 0H20C21.1046 0 22 0.895432 22 2V6C22 7.10457 21.1046 8 20 8H2C0.895431 8 0 7.10457 0 6V2ZM20 2H2V6H20V2ZM4 4C4 3.44772 4.44772 3 5 3H5.01C5.56228 3 6.01 3.44772 6.01 4C6.01 4.55228 5.56228 5 5.01 5H5C4.44772 5 4 4.55228 4 4ZM8 4C8 3.44772 8.44772 3 9 3H9.01C9.56229 3 10.01 3.44772 10.01 4C10.01 4.55228 9.56229 5 9.01 5H9C8.44772 5 8 4.55228 8 4ZM0 12C0 10.8954 0.895431 10 2 10H20C21.1046 10 22 10.8954 22 12V16C22 17.1046 21.1046 18 20 18H2C0.895431 18 0 17.1046 0 16V12ZM20 12H2V16H20V12ZM4 14C4 13.4477 4.44772 13 5 13H5.01C5.56228 13 6.01 13.4477 6.01 14C6.01 14.5523 5.56228 15 5.01 15H5C4.44772 15 4 14.5523 4 14ZM8 14C8 13.4477 8.44772 13 9 13H9.01C9.56229 13 10.01 13.4477 10.01 14C10.01 14.5523 9.56229 15 9.01 15H9C8.44772 15 8 14.5523 8 14Z" fill="var(--fill-0, #56524E)"/>
</svg>
