<svg preserveAspectRatio="xMidYMid meet" width="24" height="24" overflow="visible" style="display: block;" viewBox="0 0 22 22" fill="none" xmlns="http://www.w3.org/2000/svg">
<path id="Icon" fill-rule="evenodd" clip-rule="evenodd" d="M7.5399 1.36754C7.81213 0.55086 8.57641 0 9.43727 0H11.9957C12.8566 0 13.6209 0.55086 13.8931 1.36754L12.9444 1.68377L13.8931 1.36754L14.5524 3.34547L15.4503 3.91336L17.5884 3.38434C18.4441 3.1726 19.3375 3.54611 19.788 4.30389L21.178 6.64244C21.6462 7.43008 21.5192 8.43513 20.8699 9.08163L19.358 10.587L19.3576 11.4134L20.8692 12.9184C21.5185 13.5649 21.6454 14.5699 21.1773 15.3575L19.7872 17.6961C19.3368 18.4539 18.4434 18.8274 17.5876 18.6156L15.4197 18.0792L14.6453 18.5137L14.0539 20.5563C13.8062 21.4115 13.0231 22 12.1328 22H9.30099C8.41066 22 7.62753 21.4115 7.3799 20.5563L6.78852 18.5139L6.01343 18.0792L3.84538 18.6156C2.98965 18.8274 2.0962 18.4539 1.64578 17.6961L0.281524 15.4009C-0.210096 14.5738 -0.0431064 13.5139 0.679 12.878L2.12945 11.6008V10.3993L0.678554 9.12207C-0.0437267 8.48623 -0.210816 7.42617 0.28086 6.59898L1.64505 4.30389C2.09547 3.54611 2.98892 3.1726 3.84465 3.38434L5.98271 3.91336L6.88059 3.34547L7.5399 1.36754ZM11.9957 2L9.43727 2L8.66519 4.31623C8.59226 4.53502 8.44595 4.72187 8.25104 4.84515L6.6912 5.83171C6.46087 5.97739 6.18104 6.02275 5.91648 5.95729L3.36427 5.32579L2.00008 7.62088L3.79022 9.19678C4.00587 9.38662 4.12945 9.66006 4.12945 9.94737V12.0526C4.12945 12.3399 4.00591 12.6133 3.79032 12.8031L2.00075 14.379L3.365 16.6742L5.91721 16.0427C6.164 15.9816 6.42478 16.0169 6.64653 16.1412L8.12422 16.9699C8.35326 17.0983 8.52259 17.3117 8.59563 17.564L9.30099 20L12.1328 20L12.8381 17.564C12.9111 17.3118 13.0804 17.0985 13.3094 16.97L14.7863 16.1413C15.0081 16.0169 15.2689 15.9816 15.5158 16.0427L18.068 16.6742L19.458 14.3356L17.6518 12.5373C17.4633 12.3495 17.3573 12.0944 17.3574 11.8282L17.3581 10.1709C17.3583 9.90506 17.4642 9.65023 17.6526 9.46267L19.4588 7.66434L18.0687 5.32579L15.5165 5.95729C15.252 6.02275 14.9721 5.97739 14.7418 5.83171L13.182 4.84515C12.9871 4.72187 12.8408 4.53502 12.7678 4.31623L11.9957 2ZM10.7165 8.5C9.3358 8.5 8.21651 9.61929 8.21651 11C8.21651 12.3807 9.3358 13.5 10.7165 13.5C12.0972 13.5 13.2165 12.3807 13.2165 11C13.2165 9.61929 12.0972 8.5 10.7165 8.5ZM6.21651 11C6.21651 8.51472 8.23123 6.5 10.7165 6.5C13.2018 6.5 15.2165 8.51472 15.2165 11C15.2165 13.4853 13.2018 15.5 10.7165 15.5C8.23123 15.5 6.21651 13.4853 6.21651 11Z" fill="var(--fill-0, #56524E)"/>
</svg>
