<svg preserveAspectRatio="xMidYMid meet" width="24" height="24" overflow="visible" style="display: block;" viewBox="0 0 21 22" fill="none" xmlns="http://www.w3.org/2000/svg">
<path id="Icon" fill-rule="evenodd" clip-rule="evenodd" d="M0 1C0 0.447715 0.447715 0 1 0H3.5C3.98447 0 4.39926 0.347281 4.48443 0.824209L4.87296 3H20C20.5523 3 21 3.44772 21 4C21 4.55228 20.5523 5 20 5H19.8524L18.4874 13.5084C18.418 13.9407 18.0755 14.2777 17.642 14.3399L6.66028 15.9155L6.43549 16.3651C7.08014 16.717 7.58141 17.2987 7.82929 18H12.1707C12.5825 16.8348 13.6938 16 15 16C16.6569 16 18 17.3431 18 19C18 20.6569 16.6569 22 15 22C13.6938 22 12.5825 21.1652 12.1707 20H7.82929C7.41746 21.1652 6.30622 22 5 22C3.34315 22 2 20.6569 2 19C2 17.5677 3.00377 16.3698 4.34625 16.0714L4.95728 14.8494L2.66275 2H1C0.447715 2 0 1.55228 0 1ZM6.81455 13.8729L16.6292 12.4647L17.8268 5H5.2301L6.81455 13.8729ZM5 18C4.44772 18 4 18.4477 4 19C4 19.5523 4.44772 20 5 20C5.55228 20 6 19.5523 6 19C6 18.4477 5.55228 18 5 18ZM15 18C14.4477 18 14 18.4477 14 19C14 19.5523 14.4477 20 15 20C15.5523 20 16 19.5523 16 19C16 18.4477 15.5523 18 15 18Z" fill="var(--fill-0, #56524E)"/>
</svg>
