<svg preserveAspectRatio="xMidYMid meet" width="24" height="24" overflow="visible" style="display: block;" viewBox="0 0 20 16" fill="none" xmlns="http://www.w3.org/2000/svg">
<path id="Icon" fill-rule="evenodd" clip-rule="evenodd" d="M4.79289 0.292893C5.18342 -0.0976311 5.81658 -0.0976311 6.20711 0.292893L9.5 3.58579L12.7929 0.292893C13.1834 -0.0976311 13.8166 -0.0976311 14.2071 0.292893C14.5976 0.683417 14.5976 1.31658 14.2071 1.70711L10.9142 5L14.2071 8.29289C14.5976 8.68342 14.5976 9.31658 14.2071 9.70711C13.8166 10.0976 13.1834 10.0976 12.7929 9.70711L9.5 6.41421L6.20711 9.70711C5.81658 10.0976 5.18342 10.0976 4.79289 9.70711C4.40237 9.31658 4.40237 8.68342 4.79289 8.29289L8.08579 5L4.79289 1.70711C4.40237 1.31658 4.40237 0.683417 4.79289 0.292893ZM0 15C0 14.4477 0.447715 14 1 14H4C4.55228 14 5 14.4477 5 15C5 15.5523 4.55228 16 4 16H1C0.447715 16 0 15.5523 0 15ZM7.5 15C7.5 14.4477 7.94772 14 8.5 14H11.5C12.0523 14 12.5 14.4477 12.5 15C12.5 15.5523 12.0523 16 11.5 16H8.5C7.94772 16 7.5 15.5523 7.5 15ZM15 15C15 14.4477 15.4477 14 16 14H19C19.5523 14 20 14.4477 20 15C20 15.5523 19.5523 16 19 16H16C15.4477 16 15 15.5523 15 15Z" fill="var(--fill-0, #56524E)"/>
</svg>
