<svg preserveAspectRatio="xMidYMid meet" width="24" height="24" overflow="visible" style="display: block;" viewBox="0 0 18 22" fill="none" xmlns="http://www.w3.org/2000/svg">
<path id="Icon" fill-rule="evenodd" clip-rule="evenodd" d="M3.49981 5.5C3.49981 2.46243 5.96225 0 8.99981 0C12.0374 0 14.4998 2.46243 14.4998 5.5V7H14.9998C16.6567 7 17.9998 8.34315 17.9998 10V19C17.9998 20.6569 16.6567 22 14.9998 22H3.00083C1.34408 22 0.000985337 20.657 0.000832154 19.0003L1.31011e-08 10.0003C-0.000153171 8.34332 1.34304 7 3 7H3.49981V5.5ZM3 9C2.44768 9 1.99995 9.44777 2 10.0001L2.00083 19.0001C2.00088 19.5523 2.44858 20 3.00083 20H14.9998C15.5521 20 15.9998 19.5523 15.9998 19V10C15.9998 9.44772 15.5521 9 14.9998 9H3ZM12.4998 7H5.49981V5.5C5.49981 3.567 7.06682 2 8.99981 2C10.9328 2 12.4998 3.567 12.4998 5.5V7ZM8.99981 12.5C9.5521 12.5 9.99981 12.9477 9.99981 13.5V15.5C9.99981 16.0523 9.5521 16.5 8.99981 16.5C8.44753 16.5 7.99981 16.0523 7.99981 15.5V13.5C7.99981 12.9477 8.44753 12.5 8.99981 12.5Z" fill="var(--fill-0, #56524E)"/>
</svg>
