<svg preserveAspectRatio="xMidYMid meet" width="24" height="24" overflow="visible" style="display: block;" viewBox="0 0 22 21" fill="none" xmlns="http://www.w3.org/2000/svg">
<path id="Icon" fill-rule="evenodd" clip-rule="evenodd" d="M2 2C2 0.895431 2.89543 0 4 0H18C19.1046 0 20 0.89543 20 2V3.23444L21.8682 6.50386C21.9546 6.65496 22 6.82597 22 7C22 8.26319 21.4145 9.38962 20.5 10.1227V18C20.5 19.6569 19.1569 21 17.5 21H4.5C2.84315 21 1.5 19.6569 1.5 18V10.1227C0.585537 9.38962 0 8.26319 0 7C0 6.82597 0.0454153 6.65496 0.131757 6.50386L2 3.23444V2ZM3.5 10.9691V18C3.5 18.5523 3.94772 19 4.5 19H17.5C18.0523 19 18.5 18.5523 18.5 18V10.9691C18.3362 10.9895 18.1693 11 18 11C16.7597 11 15.6513 10.4355 14.9176 9.54947C14.7112 9.75229 14.4842 9.93179 14.245 10.0877C13.2879 10.7117 12.0899 11 11 11C9.91011 11 8.71214 10.7117 7.75497 10.0877C7.51577 9.9318 7.28881 9.7523 7.08237 9.54948C6.34868 10.4355 5.24026 11 4 11C3.83067 11 3.6638 10.9895 3.5 10.9691ZM8 7C8 7.58637 8.2935 8.05136 8.84715 8.41227C9.42403 8.78832 10.226 9 11 9C11.774 9 12.576 8.78832 13.1528 8.41227C13.7065 8.05136 14 7.58637 14 7C14 6.44772 14.4477 6 15 6C15.5523 6 16 6.44772 16 7C16 8.10457 16.8954 9 18 9C19.0232 9 19.8669 8.23168 19.9857 7.24051L18.1318 3.99614C18.0454 3.84504 18 3.67403 18 3.5V2H4V3.5C4 3.67403 3.95458 3.84504 3.86824 3.99614L2.01431 7.24052C2.13311 8.23168 2.97683 9 4 9C5.10457 9 6 8.10457 6 7C6 6.44772 6.44772 6 7 6C7.55228 6 8 6.44772 8 7ZM4.5 16.5C4.5 15.9477 4.94772 15.5 5.5 15.5H9.5C10.0523 15.5 10.5 15.9477 10.5 16.5C10.5 17.0523 10.0523 17.5 9.5 17.5H5.5C4.94772 17.5 4.5 17.0523 4.5 16.5Z" fill="var(--fill-0, #56524E)"/>
</svg>
