<svg preserveAspectRatio="xMidYMid meet" width="24" height="24" overflow="visible" style="display: block;" viewBox="0 0 16 20" fill="none" xmlns="http://www.w3.org/2000/svg">
<g id="Icon">
<path fill-rule="evenodd" clip-rule="evenodd" d="M8 2C6.34315 2 5 3.34315 5 5C5 6.65685 6.34315 8 8 8C9.65685 8 11 6.65685 11 5C11 3.34315 9.65685 2 8 2ZM3 5C3 2.23858 5.23858 0 8 0C10.7614 0 13 2.23858 13 5C13 7.76142 10.7614 10 8 10C5.23858 10 3 7.76142 3 5Z" fill="var(--fill-0, #56524E)"/>
<path fill-rule="evenodd" clip-rule="evenodd" d="M0 17C0 13.6863 2.68629 11 6 11H10C13.3137 11 16 13.6863 16 17V19C16 19.5523 15.5523 20 15 20H1C0.447715 20 0 19.5523 0 19V17ZM6 13C3.79086 13 2 14.7909 2 17V18H14V17C14 14.7909 12.2091 13 10 13H6Z" fill="var(--fill-0, #56524E)"/>
</g>
</svg>
