<svg preserveAspectRatio="xMidYMid meet" width="28" height="28" viewBox="0 0 28 28" fill="none" xmlns="http://www.w3.org/2000/svg">
<g>
<path fill-rule="evenodd" clip-rule="evenodd" d="M14 6C11.7909 6 10 7.79086 10 10C10 12.2091 11.7909 14 14 14C16.2091 14 18 12.2091 18 10C18 7.79086 16.2091 6 14 6ZM7 10C7 6.13401 10.134 3 14 3C17.866 3 21 6.13401 21 10C21 13.866 17.866 17 14 17C10.134 17 7 13.866 7 10Z" fill="#56524E"/>
<path fill-rule="evenodd" clip-rule="evenodd" d="M4 22C4 18.134 7.13401 15 11 15H17C20.866 15 24 18.134 24 22V24C24 24.5523 23.5523 25 23 25H5C4.44772 25 4 24.5523 4 24V22ZM11 18C8.79086 18 7 19.7909 7 22V22H21V22C21 19.7909 19.2091 18 17 18H11Z" fill="#56524E"/>
</g>
</svg>
