<svg preserveAspectRatio="xMidYMid meet" width="28" height="28" viewBox="0 0 28 28" fill="none" xmlns="http://www.w3.org/2000/svg">
<path fill-rule="evenodd" clip-rule="evenodd" d="M13.1 2.14682C13.4524 1.95106 13.8809 1.95106 14.2333 2.14682L22.7332 7.98015C23.1036 8.18591 23.3333 8.57631 23.3333 9V12.4942C23.3333 13.1385 22.811 13.6609 22.1667 13.6609H21V21.8333H22.1666C22.811 21.8333 23.3333 22.3557 23.3333 23V26.5C23.3333 27.1443 22.811 27.6666 22.1666 27.6666H5.16702C4.52273 27.6666 4.00041 27.1443 4.00035 26.5L4 23.0001C3.99997 22.6907 4.12287 22.3939 4.34167 22.1751C4.56046 21.9563 4.85723 21.8333 5.16667 21.8333H6.33333V13.6609H5.16667C4.52233 13.6609 4 13.1385 4 12.4942V9C4 8.57631 4.22971 8.18591 4.60008 7.98015L13.1 2.14682ZM8.66667 13.6609V21.8333H11V13.6609H8.66667ZM13.3333 13.6609V21.8333H18V13.6609H13.3333ZM20.3333 13.6609V21.8333H20.6667V13.6609H20.3333ZM21 11.3275H6.33333V9.68647L13.6667 4.50129L21 9.68647V11.3275ZM21 24.1667H6.33345L6.33357 25.3333H21V24.1667ZM12.4952 9C12.4952 8.35567 13.0176 7.83333 13.6619 7.83333H13.6724C14.3167 7.83333 14.8391 8.35567 14.8391 9C14.8391 9.64433 14.3167 10.1667 13.6724 10.1667H13.6619C13.0176 10.1667 12.4952 9.64433 12.4952 9Z" fill="#56524E"/>
</svg>
