<svg preserveAspectRatio="xMidYMid meet" width="24" height="24" overflow="visible" style="display: block;" viewBox="0 0 15 18" fill="none" xmlns="http://www.w3.org/2000/svg">
<path id="Icon" fill-rule="evenodd" clip-rule="evenodd" d="M7.5 2C6.11929 2 5 3.11929 5 4.5C5 5.88071 6.11929 7 7.5 7C8.88071 7 10 5.88071 10 4.5C10 3.11929 8.88071 2 7.5 2ZM3 4.5C3 2.01472 5.01472 0 7.5 0C9.98528 0 12 2.01472 12 4.5C12 6.98528 9.98528 9 7.5 9C5.01472 9 3 6.98528 3 4.5ZM7.5 12C5.4899 12 3.68299 12.5066 2.32549 13.31C2.14983 13.4139 2 13.6488 2 13.9852V17C2 17.5523 1.55228 18 1 18C0.447715 18 0 17.5523 0 17V13.9852C0 13.0792 0.41341 12.1176 1.30687 11.5888C3.00224 10.5855 5.16735 10 7.5 10C9.83265 10 11.9978 10.5855 13.6931 11.5888C14.5866 12.1176 15 13.0792 15 13.9852V17C15 17.5523 14.5523 18 14 18C13.4477 18 13 17.5523 13 17V13.9852C13 13.6488 12.8502 13.4139 12.6745 13.31C11.317 12.5066 9.51009 12 7.5 12Z" fill="var(--fill-0, #56524E)"/>
</svg>
