<svg preserveAspectRatio="xMidYMid meet" width="24" height="24" overflow="visible" style="display: block;" viewBox="0 0 22 20" fill="none" xmlns="http://www.w3.org/2000/svg">
<path id="Icon" fill-rule="evenodd" clip-rule="evenodd" d="M1.29289 0.292893C1.68342 -0.0976311 2.31658 -0.0976311 2.70711 0.292893L20.7071 18.2929C21.0976 18.6834 21.0976 19.3166 20.7071 19.7071C20.3166 20.0976 19.6834 20.0976 19.2929 19.7071L16.1099 16.5241C14.6508 17.3806 12.9285 18 11 18C8.36468 18 6.02647 16.8771 4.18103 15.4072C2.33758 13.9389 0.918667 12.0734 0.105573 10.4472C-0.0351909 10.1657 -0.0351909 9.83431 0.105573 9.55279L1 10C0.105573 9.55279 0.105447 9.55304 0.105573 9.55279L0.106099 9.55173L0.106766 9.55041L0.108519 9.54693L0.113709 9.53671L0.130825 9.50356C0.14523 9.47592 0.165634 9.43737 0.192045 9.38886C0.244848 9.29187 0.321764 9.15491 0.422836 8.98577C0.624775 8.64783 0.924342 8.17944 1.32209 7.6437C1.9925 6.74071 2.95483 5.62879 4.21443 4.62865L1.29289 1.70711C0.902369 1.31658 0.902369 0.683417 1.29289 0.292893ZM5.63948 6.0537C4.46639 6.94938 3.56043 7.98395 2.92791 8.83591C2.57566 9.31037 2.31273 9.72207 2.13966 10.0117C2.13956 10.0119 2.13977 10.0115 2.13966 10.0117C2.85663 11.2795 3.99385 12.7013 5.42706 13.8428C7.03431 15.1229 8.94609 16 11 16C12.3071 16 13.5273 15.6322 14.6391 15.0533L12.9975 13.4118C12.3968 13.7843 11.6876 14 10.9289 14C8.75904 14 7 12.241 7 10.0711C7 9.3124 7.21568 8.60317 7.58825 8.00246L5.63948 6.0537ZM9.08572 9.49993C9.02995 9.68032 9 9.87206 9 10.0711C9 11.1364 9.86361 12 10.9289 12C11.1279 12 11.3197 11.97 11.5001 11.9143L9.08572 9.49993ZM11 4C10.2074 4 9.44883 4.13492 8.72724 4.36934C8.20198 4.53998 7.63784 4.2525 7.4672 3.72724C7.29656 3.20198 7.58404 2.63784 8.1093 2.4672C9.00995 2.17461 9.97701 2 11 2C13.6353 2 15.9735 3.12293 17.819 4.59279C19.6624 6.06106 21.0813 7.9266 21.8944 9.55279C22.0352 9.83431 22.0352 10.1657 21.8944 10.4472L21 10C21.8944 10.4472 21.8945 10.4471 21.8944 10.4472L21.8925 10.451L21.8891 10.4578L21.8779 10.4797C21.8685 10.4981 21.8552 10.5237 21.8381 10.5561C21.8039 10.6207 21.7546 10.7121 21.6909 10.8253C21.5637 11.0514 21.3783 11.3659 21.1415 11.7276C20.6725 12.4441 19.9807 13.3779 19.1168 14.1742C18.7107 14.5486 18.078 14.5228 17.7037 14.1168C17.3294 13.7107 17.3551 13.078 17.7612 12.7037C18.4583 12.0611 19.047 11.2754 19.4682 10.6321C19.6281 10.3879 19.7609 10.1688 19.8633 9.99248C19.1465 8.72352 18.0079 7.30013 16.5729 6.15721C14.9657 4.87707 13.0539 4 11 4Z" fill="var(--fill-0, #56524E)"/>
</svg>
