<svg preserveAspectRatio="xMidYMid meet" width="24" height="24" overflow="visible" style="display: block;" viewBox="0 0 22 16" fill="none" xmlns="http://www.w3.org/2000/svg">
<path id="Icon" fill-rule="evenodd" clip-rule="evenodd" d="M4.36252 2.46056C6.05 1.1495 8.20541 0 10.6129 0C13.0203 0 15.1757 1.1495 16.8632 2.46056C18.562 3.78038 19.8902 5.34424 20.6639 6.35406C21.413 7.33197 21.413 8.66803 20.6639 9.64594C19.8902 10.6558 18.562 12.2196 16.8632 13.5394C15.1757 14.8505 13.0203 16 10.6129 16C8.20541 16 6.04999 14.8505 4.36252 13.5394C2.66377 12.2196 1.33551 10.6558 0.561881 9.64594C-0.187294 8.66803 -0.187294 7.33196 0.561881 6.35406C1.33551 5.34424 2.66378 3.78038 4.36252 2.46056ZM5.58958 4.0399C4.07847 5.21394 2.86904 6.63118 2.14952 7.57037L1.3557 6.96222L2.14952 7.57037C1.95016 7.8306 1.95016 8.1694 2.14952 8.42963C2.86904 9.36882 4.07847 10.7861 5.58958 11.9601C7.11196 13.1429 8.83855 14 10.6129 14C12.3872 14 14.1138 13.1429 15.6362 11.9601C17.1473 10.7861 18.3567 9.36882 19.0762 8.42963C19.2756 8.1694 19.2756 7.8306 19.0762 7.57037C18.3567 6.63118 17.1473 5.21394 15.6362 4.0399C14.1138 2.85711 12.3872 2 10.6129 2C8.83855 2 7.11196 2.85711 5.58958 4.0399ZM6.61287 8C6.61287 5.79086 8.40373 4 10.6129 4C12.822 4 14.6129 5.79086 14.6129 8C14.6129 10.2091 12.822 12 10.6129 12C8.40373 12 6.61287 10.2091 6.61287 8ZM10.6129 6C9.5083 6 8.61287 6.89543 8.61287 8C8.61287 9.10457 9.5083 10 10.6129 10C11.7174 10 12.6129 9.10457 12.6129 8C12.6129 6.89543 11.7174 6 10.6129 6Z" fill="var(--fill-0, #56524E)"/>
</svg>
