<svg preserveAspectRatio="xMidYMid meet" width="24" height="24" overflow="visible" style="display: block;" viewBox="0 0 22 10" fill="none" xmlns="http://www.w3.org/2000/svg">
<path id="Icon" fill-rule="evenodd" clip-rule="evenodd" d="M20.1681 0.445161C20.4745 -0.0141663 21.0953 -0.138242 21.5547 0.168056C22.0142 0.474408 22.1384 1.09528 21.8321 1.55481L21 1.00011C21.8321 1.55481 21.8321 1.55467 21.8321 1.55481L21.8312 1.55608L21.83 1.55782L21.8268 1.56269L21.8164 1.5779C21.8079 1.59044 21.796 1.60772 21.7809 1.62946C21.7506 1.67294 21.7071 1.73428 21.6508 1.81117C21.5384 1.96486 21.3745 2.18111 21.1621 2.44119C20.8827 2.78353 20.5174 3.2041 20.0733 3.65915L21.7071 5.293C22.0976 5.68352 22.0976 6.31669 21.7071 6.70721C21.3166 7.09774 20.6834 7.09774 20.2929 6.70721L18.5983 5.01261C17.7217 5.72942 16.6681 6.44354 15.4624 6.99377L16.3575 8.48561C16.6416 8.95919 16.4881 9.57345 16.0145 9.8576C15.5409 10.1417 14.9267 9.98818 14.6425 9.5146L13.5398 7.6768C12.7404 7.88122 11.892 8.00011 11 8.00011C10.108 8.00011 9.25964 7.88122 8.46017 7.6768L7.35749 9.5146C7.07334 9.98818 6.45908 10.1417 5.9855 9.8576C5.51192 9.57345 5.35836 8.95919 5.64251 8.48561L6.53761 6.99377C5.33187 6.44354 4.27829 5.72942 3.40171 5.01261L1.70711 6.70721C1.31658 7.09774 0.683417 7.09774 0.292893 6.70721C-0.0976311 6.31669 -0.0976311 5.68352 0.292893 5.293L1.92675 3.65915C1.48255 3.2041 1.11732 2.78353 0.837858 2.44119C0.62554 2.18111 0.461644 1.96486 0.349176 1.81117C0.292915 1.73428 0.24944 1.67294 0.219129 1.62946C0.203971 1.60772 0.192096 1.59044 0.183553 1.5779L0.173238 1.56269L0.169964 1.55782L0.168132 1.55508C0.168039 1.55494 0.16795 1.55481 1 1.00011L0.168132 1.55508C-0.13822 1.09555 -0.0142289 0.474408 0.4453 0.168056C0.904674 -0.138193 1.52528 -0.0142062 1.83174 0.444942C1.83174 0.444946 1.83174 0.444939 1.83174 0.444942L1.83626 0.451595L1.85973 0.485595C1.88173 0.517156 1.91635 0.566072 1.96319 0.630086C2.05693 0.758189 2.19929 0.946287 2.38716 1.17642C2.76369 1.63765 3.31867 2.26239 4.02691 2.90981C5.70612 4.44482 8.12714 6.00011 11 6.00011C13.8729 6.00011 16.2939 4.44482 17.9731 2.90981C18.6813 2.26239 19.2363 1.63765 19.6128 1.17642C19.8007 0.946287 19.9431 0.758189 20.0368 0.630086C20.0836 0.566072 20.1183 0.517156 20.1403 0.485595L20.1637 0.451595L20.1681 0.445161Z" fill="var(--fill-0, #56524E)"/>
</svg>
