<svg width="24" height="24" viewBox="0 0 24 24" fill="none" xmlns="http://www.w3.org/2000/svg">
<path d="M20.5 5.5C20.5 4.46435 19.7128 3.613 18.7041 3.51074L18.5 3.5H5.5C4.39543 3.5 3.5 4.39543 3.5 5.5V18.5C3.5 19.6046 4.39543 20.5 5.5 20.5H18.5C19.6046 20.5 20.5 19.6046 20.5 18.5V5.5ZM22.5 18.5C22.5 20.7091 20.7091 22.5 18.5 22.5H5.5C3.29086 22.5 1.5 20.7091 1.5 18.5V5.5C1.5 3.29086 3.29086 1.5 5.5 1.5H18.5L18.7061 1.50488C20.8194 1.61211 22.5 3.35996 22.5 5.5V18.5Z" fill="#56524E"/>
<path d="M21 8C21.5523 8 22 8.44772 22 9C22 9.55229 21.5523 10 21 10H3C2.44772 10 2 9.55229 2 9C2 8.44772 2.44772 8 3 8H21Z" fill="#56524E"/>
<path d="M14.5996 16L14.7021 16.0049C15.2065 16.056 15.5996 16.4822 15.5996 17C15.5996 17.5178 15.2065 17.944 14.7021 17.9951L14.5996 18H13C12.4477 18 12 17.5523 12 17C12 16.4477 12.4477 16 13 16H14.5996ZM17 12L17.1025 12.0049C17.6067 12.0562 18 12.4823 18 13C18 13.5177 17.6067 13.9438 17.1025 13.9951L17 14H13C12.4477 14 12 13.5523 12 13C12 12.4477 12.4477 12 13 12H17Z" fill="#56524E"/>
<path d="M6.50879 5L6.61133 5.00488C7.11554 5.05614 7.50879 5.48226 7.50879 6C7.50879 6.51774 7.11554 6.94386 6.61133 6.99512L6.50879 7H6.5C5.94772 7 5.5 6.55228 5.5 6C5.5 5.44772 5.94772 5 6.5 5H6.50879ZM10.5 5L10.6025 5.00488C11.1067 5.05621 11.5 5.48232 11.5 6C11.5 6.51768 11.1067 6.94379 10.6025 6.99512L10.5 7H10.4912C9.93893 7 9.49121 6.55228 9.49121 6C9.49121 5.44772 9.93893 5 10.4912 5H10.5Z" fill="#56524E"/>
<path d="M8 21V9C8 8.44772 8.44772 8 9 8C9.55229 8 10 8.44772 10 9V21L9.99512 21.1025C9.94379 21.6067 9.51768 22 9 22C8.48232 22 8.05621 21.6067 8.00488 21.1025L8 21Z" fill="#56524E"/>
</svg>
